<svg width="28" height="28" viewBox="0 0 28 28" fill="none" xmlns="http://www.w3.org/2000/svg">
<g clip-path="url(#clip0_34_1422)">
<path d="M14 6.96875L17.125 6.1875C17.125 6.1875 19.7109 10.2256 20.9238 14.7529C21.0317 15.1499 21.0601 15.5642 21.0075 15.9722C20.9549 16.3801 20.8223 16.7737 20.6172 17.1303C20.4122 17.4868 20.1388 17.7994 19.8126 18.0501C19.4865 18.3008 19.1141 18.4846 18.7168 18.5911C18.3195 18.6975 17.905 18.7244 17.4973 18.6703C17.0895 18.6163 16.6964 18.4822 16.3406 18.2759C15.9848 18.0695 15.6731 17.795 15.4237 17.4679C15.1742 17.1409 14.9917 16.7678 14.8867 16.3701C13.6738 11.8428 14 6.96875 14 6.96875Z" stroke="#212121" stroke-linecap="round" stroke-linejoin="round"/>
<path d="M18.7139 18.5801L20.1162 23.8115" stroke="#212121" stroke-linecap="round" stroke-linejoin="round"/>
<path d="M22.5938 23.1475L17.9062 24.4033" stroke="#212121" stroke-linecap="round" stroke-linejoin="round"/>
<path d="M14 4.625L10.875 3.84375C10.875 3.84375 8.28907 7.88184 7.07618 12.4092C6.9683 12.8061 6.93985 13.2204 6.99246 13.6284C7.04507 14.0364 7.1777 14.4299 7.38274 14.7865C7.58779 15.1431 7.86122 15.4557 8.18734 15.7064C8.51346 15.957 8.88587 16.1409 9.2832 16.2473C9.68052 16.3537 10.095 16.3807 10.5027 16.3266C10.9105 16.2725 11.3036 16.1385 11.6594 15.9321C12.0152 15.7258 12.3268 15.4512 12.5763 15.1242C12.8258 14.7971 13.0083 14.4241 13.1133 14.0264C14.2236 9.48828 14 4.625 14 4.625Z" stroke="#212121" stroke-linecap="round" stroke-linejoin="round"/>
<path d="M9.28613 16.2363L7.88379 21.4678" stroke="#212121" stroke-linecap="round" stroke-linejoin="round"/>
<path d="M5.40625 20.8037L10.0938 22.0596" stroke="#212121" stroke-linecap="round" stroke-linejoin="round"/>
<path d="M14.0479 11.0586L19.0723 9.80078" stroke="#212121" stroke-linecap="round" stroke-linejoin="round"/>
<path d="M13.8945 8.89551L8.84668 7.63379" stroke="#212121" stroke-linecap="round" stroke-linejoin="round"/>
<path d="M20.25 5.40625L21.8125 4.625" stroke="#212121" stroke-linecap="round" stroke-linejoin="round"/>
<path d="M21.8125 8.53125H23.375" stroke="#212121" stroke-linecap="round" stroke-linejoin="round"/>
<path d="M6.96875 4.625L5.40625 3.84375" stroke="#212121" stroke-linecap="round" stroke-linejoin="round"/>
<path d="M5.40625 7.75H3.84375" stroke="#212121" stroke-linecap="round" stroke-linejoin="round"/>
</g>
<defs>
<clipPath id="clip0_34_1422">
<rect width="25" height="25" fill="white" transform="translate(1.5 1.5)"/>
</clipPath>
</defs>
</svg>
