<svg width="28" height="28" viewBox="0 0 28 28" fill="none" xmlns="http://www.w3.org/2000/svg">
<path d="M5.5625 5C5.87304 5 6.125 5.25194 6.125 5.56246C6.125 5.87297 5.87304 6.12492 5.5625 6.12492C5.25196 6.12492 5 5.87297 5 5.56246C5 5.25194 5.25196 5 5.5625 5ZM7.592 6.46693C7.90254 6.46693 8.1545 6.71887 8.1545 7.02938C8.1545 7.3399 7.90254 7.59184 7.592 7.59184C7.28146 7.59184 7.0295 7.3399 7.0295 7.02938C7.0295 6.71887 7.28071 6.46693 7.592 6.46693ZM12.3125 5C12.623 5 12.875 5.25194 12.875 5.56246C12.875 5.87297 12.623 6.12492 12.3125 6.12492C12.002 6.12492 11.75 5.87297 11.75 5.56246C11.75 5.25194 12.002 5 12.3125 5ZM22.4375 17.6757C22.748 17.6757 23 17.9277 23 18.2382C23 18.5487 22.748 18.8006 22.4375 18.8006C22.127 18.8006 21.875 18.5487 21.875 18.2382C21.875 17.9277 22.127 17.6757 22.4375 17.6757ZM20.8555 5H14.5626C14.2521 5 14.0001 5.25194 14.0001 5.56246V8.9372H12.4627L11.2975 8.26417L10.5504 6.9686C10.3951 6.69909 10.0516 6.60681 9.78207 6.76207C9.69565 6.81187 9.6246 6.88291 9.57552 6.9686L8.82699 8.26417L7.66244 8.9372H7.14462C5.96103 8.93867 5.0015 9.89807 5 11.0822V17.3746C5.00146 18.6167 6.00781 19.623 7.25 19.6245H8.375V22.4367C8.375 22.7473 8.62696 22.9992 8.9375 22.9992H12.875C14.1172 22.9977 15.1235 21.9915 15.125 20.7494V16.2497H20.75C21.9922 16.2482 22.9985 15.242 23 13.9999V7.14503C22.9985 5.96079 22.0399 5.00206 20.8555 5ZM9.52053 9.1635C9.60622 9.1137 9.67727 9.04266 9.72708 8.95696L10.0625 8.37473L10.3987 8.95769C10.4485 9.04338 10.5196 9.11442 10.6053 9.16423L11.1876 9.49966L10.6045 9.83582C10.5189 9.88562 10.4478 9.95666 10.398 10.0424L10.0625 10.6246L9.72635 10.0416C9.67655 9.95594 9.6055 9.8849 9.5198 9.83509L8.93752 9.49966L9.52053 9.1635ZM12.8751 21.8737H9.50009V19.6239H12.8751C13.4962 19.6239 14.0001 20.1278 14.0001 20.7488C14.0001 21.3706 13.4962 21.8737 12.8751 21.8737ZM14.0001 18.8021C13.6588 18.6037 13.2699 18.4997 12.8751 18.4997L7.25009 18.4989C6.629 18.4989 6.12509 17.9951 6.12509 17.374C6.12509 16.753 6.629 16.2491 7.25009 16.2491H14.0001V18.8021ZM20.7501 15.1242H7.25009C6.85531 15.1242 6.4664 15.2282 6.12509 15.4267V11.0823C6.12583 10.5191 6.58212 10.0636 7.14462 10.0628L7.66244 10.0621L8.82772 10.7351L9.57479 12.0307C9.73007 12.3002 10.0736 12.3925 10.3431 12.2372C10.4295 12.1874 10.5006 12.1164 10.5497 12.0307L11.2982 10.7351L12.4627 10.0621H14.0001V12.3119C14.0001 12.6224 14.2521 12.8744 14.5626 12.8744H20.7501C21.3712 12.8744 21.8751 13.3783 21.8751 13.9993C21.8751 14.6211 21.3712 15.1242 20.7501 15.1242ZM21.8751 12.0519C21.5331 11.8534 21.1449 11.7494 20.7501 11.7502L15.1251 11.7494V6.12486H20.8555C21.4187 6.12559 21.8743 6.58185 21.875 7.14431L21.8751 12.0519ZM21.5938 19.6993L20.2982 18.9508L19.5504 17.6552C19.3951 17.3857 19.0516 17.2934 18.7821 17.4487C18.6956 17.4985 18.6246 17.5695 18.5755 17.6552L17.827 18.9508L16.5313 19.6993C16.2618 19.8545 16.1695 20.198 16.3248 20.4675C16.3746 20.5539 16.4456 20.625 16.5313 20.6741L17.827 21.4225L18.5748 22.7181C18.73 22.9876 19.0736 23.0799 19.3431 22.9246C19.4295 22.8748 19.5006 22.8038 19.5496 22.7181L20.2982 21.4225L21.5938 20.6748C21.8634 20.5195 21.9557 20.176 21.8004 19.9065C21.7513 19.8201 21.6803 19.7483 21.5938 19.6993ZM19.6047 20.5232C19.519 20.573 19.4479 20.644 19.3981 20.7297L19.0627 21.3112L18.7265 20.7282C18.6767 20.6426 18.6056 20.5715 18.5199 20.5217L17.9376 20.1863L18.5206 19.8501C18.6063 19.8003 18.6774 19.7293 18.7272 19.6436L19.0627 19.0613L19.3988 19.6443C19.4486 19.73 19.5197 19.801 19.6054 19.8508L20.1877 20.1863L19.6047 20.5232Z" fill="#494949"/>
</svg>
