<svg width="28" height="28" viewBox="0 0 28 28" fill="none" xmlns="http://www.w3.org/2000/svg">
<path d="M24.2142 15.5001C23.7821 15.5001 23.4285 15.8376 23.4285 16.2501C23.4285 17.4876 22.3678 18.5001 21.0714 18.5001H19.5V17.0001H20.2857C21.15 17.0001 21.8571 16.3251 21.8571 15.5001C21.8571 12.1926 19.0363 9.50002 15.5714 9.50002C14.7071 9.50002 14 10.175 14 11V12.5H12.4285V11.75C12.4285 10.5125 11.3678 9.50002 10.0714 9.50002H8.72779C8.17779 8.58501 7.15637 8 6.01714 8H4.57143C3.70714 8 3 8.67501 3 9.50002V14.0001C3 15.3951 4.00571 16.5575 5.35714 16.895V18.5H3.78571C3.35356 18.5 3 18.8375 3 19.25C3 19.6625 3.35356 20 3.78571 20H21.0714C23.24 20 25 18.32 25 16.25C25 15.8374 24.6464 15.5001 24.2142 15.5001ZM10.8571 11.75V12.5H9.85138L9.32494 11H10.0714C10.5035 11 10.8571 11.3375 10.8571 11.75ZM4.57138 14.0001V9.50002H6.01709C6.69281 9.50002 7.28995 9.91253 7.50995 10.5275L8.54709 13.4901C8.65709 13.7976 8.95566 14.0001 9.29353 14.0001H14.0078C14.8721 14.0001 15.5792 13.3251 15.5792 12.5001V11.0001C18.18 11.0001 20.2935 13.0176 20.2935 15.5001H6.14288C5.2786 15.5001 4.57138 14.8251 4.57138 14.0001ZM6.92852 17.0001H17.9285V18.5001H6.92852V17.0001Z" fill="#494949"/>
</svg>
