<svg width="14" height="14" viewBox="0 0 14 14" fill="none" xmlns="http://www.w3.org/2000/svg">
<rect width="14" height="14" rx="7" fill="#494949"/>
<path fill-rule="evenodd" clip-rule="evenodd" d="M7.14645 3.64645C7.34171 3.45118 7.65829 3.45118 7.85355 3.64645L10.8536 6.64645C11.0488 6.84171 11.0488 7.15829 10.8536 7.35355L7.85355 10.3536C7.65829 10.5488 7.34171 10.5488 7.14645 10.3536C6.95118 10.1583 6.95118 9.84171 7.14645 9.64645L9.29289 7.5L3.5 7.5C3.22386 7.5 3 7.27614 3 7C3 6.72386 3.22386 6.5 3.5 6.5H9.29289L7.14645 4.35355C6.95118 4.15829 6.95118 3.84171 7.14645 3.64645Z" fill="white"/>
</svg>
