<svg width="28" height="28" viewBox="0 0 28 28" fill="none" xmlns="http://www.w3.org/2000/svg">
<path d="M10.3054 13.6784L7.59448 11.0451C7.50227 10.9621 7.43244 10.8573 7.39141 10.7402C7.35039 10.6231 7.33949 10.4976 7.35974 10.3752C7.37998 10.2529 7.43071 10.1375 7.50725 10.0399C7.58378 9.9423 7.68366 9.86552 7.79768 9.81665L8.45808 9.56727L13.7718 11.5226L18.837 8.4977C19.445 8.13989 20.161 8.01137 20.8555 8.13537C21.55 8.25937 22.1772 8.6277 22.6239 9.1738L24.3446 11.3813L10.7293 19.5093C10.1793 19.8295 9.5406 19.9637 8.90823 19.8918C8.27585 19.8199 7.68357 19.5458 7.21948 19.1103L3.88885 15.848C3.79928 15.764 3.73204 15.6591 3.6932 15.5426C3.65437 15.4261 3.64518 15.3018 3.66644 15.1809C3.68771 15.06 3.73878 14.9463 3.81502 14.85C3.89127 14.7538 3.99029 14.6781 4.10314 14.6297L4.39408 14.4875L7.33032 15.4785L10.3054 13.6784Z" stroke="#212121" stroke-width="1.2" stroke-linecap="round" stroke-linejoin="round"/>
<path d="M7.34973 19.9106H20.6501" stroke="#212121" stroke-width="1.2" stroke-linecap="round" stroke-linejoin="round"/>
<path d="M7.34973 19.9106H20.6501" stroke="#212121" stroke-width="1.2" stroke-linecap="round" stroke-linejoin="round"/>
</svg>
