<svg width="28" height="28" viewBox="0 0 28 28" fill="none" xmlns="http://www.w3.org/2000/svg">
<path d="M23.8121 18.7797C24.8567 18.6425 25.6667 17.7483 25.6667 16.6667V14.064C25.6667 13.4876 25.4413 12.9486 25.032 12.5458C24.2167 11.7429 23.0623 10.5899 21.9906 9.51502C21.9391 9.43858 21.8733 9.37244 21.7968 9.32089C21.4416 8.96462 21.0982 8.61938 20.7835 8.30329C19.3058 6.81813 17.3378 6 15.2418 6H5.04449C4.65195 6 4.33337 6.31858 4.33337 6.71111C4.33337 7.10364 4.65195 7.42222 5.04449 7.42222H15.2418C16.9037 7.42222 18.4635 8.05547 19.6585 9.2H16.0667C15.4786 9.2 15 9.67858 15 10.2667C15 12.4231 16.7547 14.1778 18.9111 14.1778H24.2445V16.6667C24.2445 17.0588 23.9256 17.3778 23.5334 17.3778H5.04449C4.65195 17.3778 4.33337 17.6964 4.33337 18.0889C4.33337 18.4814 4.65195 18.8 5.04449 18.8H5.12555C5.28697 19.5147 5.68377 20.1351 6.23133 20.5778H5.04449C4.65195 20.5778 4.33337 20.8964 4.33337 21.2889C4.33337 21.6814 4.65195 22 5.04449 22H24.9556C25.3481 22 25.6667 21.6814 25.6667 21.2889C25.6667 20.8964 25.3481 20.5778 24.9556 20.5778H22.7035C23.2557 20.1312 23.6539 19.5029 23.8121 18.7797ZM16.4475 10.6222H21.0861C21.8107 11.3486 22.562 12.0996 23.2223 12.7556H18.9111C17.6592 12.7556 16.6207 11.8268 16.4475 10.6222ZM22.317 18.8C22.0429 19.43 21.4185 19.8667 20.6889 19.8667C19.9615 19.8667 19.3368 19.4297 19.0623 18.8H22.317ZM13.2223 19.8667C12.4984 19.8667 11.8729 19.4286 11.597 18.8H14.8504C14.5769 19.4304 13.9526 19.8667 13.2223 19.8667ZM9.86973 18.8C9.59382 19.4286 8.96875 19.8667 8.24448 19.8667C7.51595 19.8667 6.8916 19.43 6.61711 18.8H9.86973ZM10.7334 20.0939C10.877 20.2716 11.0377 20.4345 11.2155 20.5778H10.2512C10.429 20.4345 10.5897 20.2716 10.7334 20.0939ZM15.2379 20.5778C15.7847 20.1351 16.1808 19.515 16.3415 18.8H17.5704C17.7321 19.5147 18.1296 20.1351 18.6772 20.5778H15.2379Z" fill="#494949"/>
<path d="M5.04449 12.7553C4.65195 12.7553 4.33337 13.0738 4.33337 13.4664C4.33337 13.8589 4.65195 14.1775 5.04449 14.1775H12.1556C12.94 14.1775 13.5778 13.5396 13.5778 12.7553V10.6219C13.5778 9.83757 12.94 9.19971 12.1556 9.19971H5.04449C4.65195 9.19971 4.33337 9.51828 4.33337 9.91082C4.33337 10.3034 4.65195 10.6219 5.04449 10.6219H12.1556V12.7553H5.04449Z" fill="#494949"/>
</svg>
