<svg width="28" height="28" viewBox="0 0 28 28" fill="none" xmlns="http://www.w3.org/2000/svg">
<path d="M3.47551 15.164H4.91067V23.0699C4.91067 23.1932 4.96107 23.3115 5.05078 23.3987C5.1405 23.486 5.26218 23.5349 5.38905 23.5349H11.1297C11.1297 23.6583 11.1801 23.7766 11.2698 23.8638C11.3595 23.951 11.4812 24 11.6081 24H16.3919C16.5188 24 16.6405 23.951 16.7302 23.8638C16.8199 23.7766 16.8703 23.6583 16.8703 23.5349H22.6109C22.7378 23.5349 22.8595 23.486 22.9492 23.3987C23.0389 23.3115 23.0893 23.1932 23.0893 23.0699V15.164H24.5245C24.6082 15.1635 24.6903 15.1416 24.7627 15.1006C24.835 15.0596 24.895 15.0009 24.9366 14.9302C24.9783 14.8596 25.0001 14.7796 25 14.6982C24.9999 14.6168 24.9778 14.5369 24.9359 14.4664L21.7259 9.11829C21.6425 8.97771 21.5226 8.86082 21.3782 8.77924C21.2339 8.69765 21.0701 8.65421 20.9031 8.65323H16.3919V8.18818H17.3487C17.4431 8.18772 17.5353 8.1601 17.6137 8.10878C17.692 8.05747 17.7529 7.98477 17.7888 7.89984C17.8255 7.81515 17.8355 7.72181 17.8176 7.6316C17.7997 7.54138 17.7547 7.45833 17.6884 7.39294L14.3397 4.13756C14.2952 4.09397 14.2423 4.05938 14.184 4.03577C14.1257 4.01216 14.0632 4 14 4C13.9368 4 13.8743 4.01216 13.816 4.03577C13.7577 4.05938 13.7048 4.09397 13.6603 4.13756L10.3116 7.39294C10.2453 7.45833 10.2003 7.54138 10.1824 7.6316C10.1645 7.72181 10.1745 7.81515 10.2112 7.89984C10.2471 7.98477 10.308 8.05747 10.3863 8.10878C10.4647 8.1601 10.5569 8.18772 10.6513 8.18818H11.6081V8.65323H7.09689C6.92992 8.65421 6.76612 8.69765 6.62177 8.77924C6.47742 8.86082 6.35755 8.97771 6.27407 9.11829L3.0641 14.4664C3.02223 14.5369 3.00013 14.6168 3 14.6982C2.99987 14.7796 3.02172 14.8596 3.06337 14.9302C3.10502 15.0009 3.165 15.0596 3.23732 15.1006C3.30965 15.1416 3.39178 15.1635 3.47551 15.164ZM5.86744 17.4893H7.78098V20.2796H5.86744V17.4893ZM15.9135 16.0941H12.0865V15.3872L14 13.899L15.9135 15.3872V16.0941ZM12.0865 17.0242H13.5216V23.0699H12.0865V17.0242ZM14.4784 23.0699V17.0242H15.9135V23.0699H14.4784ZM22.1326 20.2796H20.219V17.4893H22.1326V20.2796ZM12.5648 10.0484H13.5216V10.9785H12.5648V10.0484ZM14.4784 10.0484H15.4352V10.9785H14.4784V10.0484ZM15.4352 9.11829H14.4784V8.18818H15.4352V9.11829ZM14 5.12348L16.1958 7.25807H11.8042L14 5.12348ZM13.5216 8.18818V9.11829H12.5648V8.18818H13.5216ZM7.09689 9.58334H11.6081V11.4436C11.6081 11.5669 11.6585 11.6852 11.7482 11.7724C11.8379 11.8596 11.9596 11.9086 12.0865 11.9086H15.9135C16.0404 11.9086 16.1621 11.8596 16.2518 11.7724C16.3415 11.6852 16.3919 11.5669 16.3919 11.4436V9.58334H20.8983L23.6921 14.2339H17.3487V15.164H22.1326V16.5591H20.219C19.9653 16.5591 19.7219 16.6571 19.5425 16.8316C19.363 17.006 19.2622 17.2426 19.2622 17.4893V20.2796C19.2622 20.5263 19.363 20.7628 19.5425 20.9373C19.7219 21.1117 19.9653 21.2097 20.219 21.2097H22.1326V22.6048H16.8703V15.164C16.8706 15.0945 16.8548 15.0259 16.8242 14.9631C16.7935 14.9003 16.7488 14.845 16.6933 14.8012L14.3014 12.941C14.2165 12.875 14.1111 12.839 14.0024 12.839C13.8937 12.839 13.7882 12.875 13.7034 12.941L11.3115 14.8012C11.2551 14.8445 11.2095 14.8996 11.178 14.9624C11.1465 15.0252 11.13 15.0941 11.1297 15.164V22.6048H5.86744V21.2097H7.78098C8.03473 21.2097 8.27809 21.1117 8.45752 20.9373C8.63695 20.7628 8.73775 20.5263 8.73775 20.2796V17.4893C8.73775 17.2426 8.63695 17.006 8.45752 16.8316C8.27809 16.6571 8.03473 16.5591 7.78098 16.5591H5.86744V15.164H10.6513V14.2339H4.3079L7.09689 9.58334Z" fill="#494949"/>
</svg>
