<svg width="28" height="28" viewBox="0 0 28 28" fill="none" xmlns="http://www.w3.org/2000/svg">
<path d="M19.0003 20.7857C20.1837 20.7857 21.1431 19.8263 21.1431 18.6429C21.1431 17.4594 20.1837 16.5 19.0003 16.5C17.8168 16.5 16.8574 17.4594 16.8574 18.6429C16.8574 19.8263 17.8168 20.7857 19.0003 20.7857Z" stroke="#212121" stroke-linecap="round" stroke-linejoin="round"/>
<path d="M9.00004 20.7857C10.1835 20.7857 11.1429 19.8263 11.1429 18.6429C11.1429 17.4594 10.1835 16.5 9.00004 16.5C7.81657 16.5 6.85718 17.4594 6.85718 18.6429C6.85718 19.8263 7.81657 20.7857 9.00004 20.7857Z" stroke="#212121" stroke-linecap="round" stroke-linejoin="round"/>
<path d="M16.8572 18.6431H11.1429" stroke="#212121" stroke-linecap="round" stroke-linejoin="round"/>
<path d="M21.1429 18.6429H23.2857C23.4752 18.6429 23.6568 18.5677 23.7908 18.4337C23.9247 18.2998 24 18.1181 24 17.9286V12.2144L19.9286 7.47061C19.8615 7.39037 19.7777 7.32583 19.6829 7.28156C19.5882 7.23728 19.4849 7.21434 19.3804 7.21436H4.71429C4.52485 7.21436 4.34316 7.28961 4.20921 7.42357C4.07525 7.55752 4 7.7392 4 7.92864V17.9286C4 18.1181 4.07525 18.2998 4.20921 18.4337C4.34316 18.5677 4.52485 18.6429 4.71429 18.6429H6.85714" stroke="#212121" stroke-linecap="round" stroke-linejoin="round"/>
<path d="M4 12.2144H24" stroke="#212121" stroke-linecap="round" stroke-linejoin="round"/>
<path d="M16.8574 7.21436V12.2144" stroke="#212121" stroke-linecap="round" stroke-linejoin="round"/>
<path d="M10.429 7.21436V12.2144" stroke="#212121" stroke-linecap="round" stroke-linejoin="round"/>
</svg>
